<svg width="80" height="80" viewBox="0 0 80 80" fill="none" xmlns="http://www.w3.org/2000/svg">
<path d="M10.0004 70L6.75242 69.2503C6.49399 70.3703 6.83069 71.5443 7.64335 72.357C8.45605 73.1697 9.63005 73.5063 10.7499 73.248L10.0004 70ZM30.4886 54.2253C31.7903 52.9237 31.7903 50.813 30.4885 49.5113C29.1868 48.2097 27.0762 48.2097 25.7745 49.5113L30.4886 54.2253ZM33.3337 48.3333C33.3337 49.2537 32.5875 50 31.6671 50V56.6667C36.2694 56.6667 40.0004 52.9357 40.0004 48.3333H33.3337ZM31.6671 50C30.7466 50 30.0004 49.2537 30.0004 48.3333H23.3337C23.3337 52.9357 27.0647 56.6667 31.6671 56.6667V50ZM30.0004 48.3333C30.0004 47.4127 30.7466 46.6667 31.6671 46.6667V40C27.0647 40 23.3337 43.731 23.3337 48.3333H30.0004ZM31.6671 46.6667C32.5875 46.6667 33.3337 47.4127 33.3337 48.3333H40.0004C40.0004 43.731 36.2694 40 31.6671 40V46.6667ZM47.2054 11.4141L40.9767 17.6429L45.6907 22.3569L51.9194 16.1282L47.2054 11.4141ZM42.4181 16.7948L25.1333 21.7333L26.9648 28.1435L44.2494 23.205L42.4181 16.7948ZM15.3379 32.0466L6.75242 69.2503L13.2484 70.7493L21.8339 33.5457L15.3379 32.0466ZM10.7499 73.248L47.9537 64.6623L46.4547 58.1663L9.25085 66.752L10.7499 73.248ZM58.2671 54.867L63.2054 37.5823L56.7954 35.7507L51.8567 53.0357L58.2671 54.867ZM62.3574 39.0237L68.5861 32.7948L63.8721 28.0808L57.6434 34.3097L62.3574 39.0237ZM68.5861 20.5383L59.4621 11.4141L54.7481 16.1282L63.8721 25.2524L68.5861 20.5383ZM68.5861 32.7948C69.2074 32.1737 69.8167 31.5679 70.2864 31.0149C70.7811 30.432 71.3131 29.6924 71.6267 28.7267L65.2864 26.6666C65.3527 26.4619 65.4311 26.4329 65.2041 26.7004C64.9517 26.9976 64.5711 27.3819 63.8721 28.0808L68.5861 32.7948ZM63.8721 25.2524C64.5711 25.9513 64.9517 26.3355 65.2041 26.6328C65.4311 26.9003 65.3527 26.8712 65.2864 26.6666L71.6267 24.6065C71.3131 23.6407 70.7811 22.9011 70.2864 22.3183C69.8167 21.7652 69.2074 21.1594 68.5861 20.5383L63.8721 25.2524ZM71.6267 28.7267C72.0617 27.3877 72.0617 25.9454 71.6267 24.6065L65.2864 26.6666L71.6267 28.7267ZM47.9537 64.6623C49.9604 64.1993 51.7141 63.8357 53.2007 62.9313L49.7361 57.236C49.3861 57.4487 48.9094 57.6 46.4547 58.1663L47.9537 64.6623ZM51.8567 53.0357C51.1647 55.4577 50.9891 55.926 50.7584 56.2647L56.2684 60.018C57.2481 58.58 57.7014 56.847 58.2671 54.867L51.8567 53.0357ZM53.2007 62.9313C54.4194 62.1903 55.4654 61.1967 56.2684 60.018L50.7584 56.2647C50.4907 56.6577 50.1424 56.9887 49.7361 57.236L53.2007 62.9313ZM25.1333 21.7333C23.1532 22.299 21.4204 22.7524 19.9823 23.732L23.7356 29.2418C24.0742 29.0111 24.5425 28.8355 26.9648 28.1435L25.1333 21.7333ZM21.8339 33.5457C22.4003 31.091 22.5516 30.6142 22.7645 30.2643L17.0688 26.7995C16.1645 28.2862 15.801 30.0401 15.3379 32.0466L21.8339 33.5457ZM19.9823 23.732C18.8035 24.5351 17.8101 25.581 17.0688 26.7995L22.7645 30.2643C23.0115 29.8581 23.3427 29.5094 23.7356 29.2418L19.9823 23.732ZM51.9194 16.1282C52.6184 15.4293 53.0027 15.0486 53.3001 14.7963C53.5674 14.5692 53.5384 14.6475 53.3337 14.7139L51.2737 8.37358C50.3077 8.68738 49.5684 9.21928 48.9854 9.71404C48.4324 10.1835 47.8267 10.793 47.2054 11.4141L51.9194 16.1282ZM59.4621 11.4141C58.8407 10.793 58.2351 10.1835 57.6821 9.71404C57.0991 9.21928 56.3597 8.68738 55.3937 8.37358L53.3337 14.7139C53.1291 14.6475 53.1001 14.5692 53.3674 14.7963C53.6647 15.0486 54.0491 15.4292 54.7481 16.1282L59.4621 11.4141ZM53.3337 14.7139L55.3937 8.37358C54.0547 7.93854 52.6127 7.93854 51.2737 8.37358L53.3337 14.7139ZM40.9767 22.3569L57.6434 39.0237L62.3574 34.3097L45.6907 17.6429L40.9767 22.3569ZM25.7745 49.5113L7.64335 67.643L12.3574 72.357L30.4886 54.2253L25.7745 49.5113Z" fill="black"/>
</svg>
